<mxfile host="app.diagrams.net" modified="2021-08-16T06:16:56.456Z" agent="5.0 (Windows NT 10.0; Win64; x64) AppleWebKit/537.36 (KHTML, like Gecko) Chrome/92.0.4515.131 Safari/537.36 Edg/92.0.902.73" etag="nMC-h_9DWsBM0VshG6UV" version="14.7.4" type="github">
  <diagram id="C15p0rNEhmbk2lUBwxyY" name="第 1 页">
    <mxGraphModel dx="555" dy="335" grid="1" gridSize="10" guides="1" tooltips="1" connect="1" arrows="1" fold="1" page="1" pageScale="1" pageWidth="827" pageHeight="1169" math="0" shadow="0">
      <root>
        <mxCell id="0" />
        <mxCell id="1" parent="0" />
        <mxCell id="IS7x5C0Tvia5YEEZ5R6P-2" value="" style="endArrow=classic;html=1;strokeWidth=3;" edge="1" parent="1">
          <mxGeometry width="50" height="50" relative="1" as="geometry">
            <mxPoint x="344" y="660" as="sourcePoint" />
            <mxPoint x="344" y="500" as="targetPoint" />
          </mxGeometry>
        </mxCell>
        <mxCell id="IS7x5C0Tvia5YEEZ5R6P-3" value="" style="endArrow=classic;html=1;strokeWidth=3;" edge="1" parent="1">
          <mxGeometry width="50" height="50" relative="1" as="geometry">
            <mxPoint x="344" y="660" as="sourcePoint" />
            <mxPoint x="504" y="660" as="targetPoint" />
          </mxGeometry>
        </mxCell>
        <mxCell id="IS7x5C0Tvia5YEEZ5R6P-6" value="" style="endArrow=none;dashed=1;html=1;strokeColor=#FF0000;strokeWidth=3;" edge="1" parent="1">
          <mxGeometry width="50" height="50" relative="1" as="geometry">
            <mxPoint x="344" y="500" as="sourcePoint" />
            <mxPoint x="504" y="500" as="targetPoint" />
          </mxGeometry>
        </mxCell>
        <mxCell id="IS7x5C0Tvia5YEEZ5R6P-7" value="" style="endArrow=none;dashed=1;html=1;strokeWidth=3;strokeColor=#FF0000;" edge="1" parent="1">
          <mxGeometry width="50" height="50" relative="1" as="geometry">
            <mxPoint x="504" y="660" as="sourcePoint" />
            <mxPoint x="504" y="500" as="targetPoint" />
          </mxGeometry>
        </mxCell>
        <mxCell id="IS7x5C0Tvia5YEEZ5R6P-8" value="" style="ellipse;whiteSpace=wrap;html=1;aspect=fixed;strokeColor=#FF0000;strokeWidth=3;" vertex="1" parent="1">
          <mxGeometry x="344" y="500" width="160" height="160" as="geometry" />
        </mxCell>
        <mxCell id="IS7x5C0Tvia5YEEZ5R6P-9" value="0.5" style="text;html=1;strokeColor=none;fillColor=none;align=center;verticalAlign=middle;whiteSpace=wrap;rounded=0;" vertex="1" parent="1">
          <mxGeometry x="404" y="660" width="40" height="20" as="geometry" />
        </mxCell>
        <mxCell id="IS7x5C0Tvia5YEEZ5R6P-10" value="1.0" style="text;html=1;strokeColor=none;fillColor=none;align=center;verticalAlign=middle;whiteSpace=wrap;rounded=0;" vertex="1" parent="1">
          <mxGeometry x="484" y="660" width="40" height="20" as="geometry" />
        </mxCell>
        <mxCell id="IS7x5C0Tvia5YEEZ5R6P-11" value="0.5" style="text;html=1;strokeColor=none;fillColor=none;align=center;verticalAlign=middle;whiteSpace=wrap;rounded=0;" vertex="1" parent="1">
          <mxGeometry x="304" y="570" width="40" height="20" as="geometry" />
        </mxCell>
        <mxCell id="IS7x5C0Tvia5YEEZ5R6P-12" value="1.0" style="text;html=1;strokeColor=none;fillColor=none;align=center;verticalAlign=middle;whiteSpace=wrap;rounded=0;" vertex="1" parent="1">
          <mxGeometry x="304" y="490" width="40" height="20" as="geometry" />
        </mxCell>
        <mxCell id="IS7x5C0Tvia5YEEZ5R6P-13" value="" style="shape=waypoint;sketch=0;size=6;pointerEvents=1;points=[];fillColor=none;resizable=0;rotatable=0;perimeter=centerPerimeter;snapToPoint=1;fontColor=#FF0000;strokeColor=#FF0000;" vertex="1" parent="1">
          <mxGeometry x="404" y="560" width="40" height="40" as="geometry" />
        </mxCell>
        <mxCell id="IS7x5C0Tvia5YEEZ5R6P-14" value="" style="endArrow=none;dashed=1;html=1;entryX=0.564;entryY=0.575;entryDx=0;entryDy=0;entryPerimeter=0;strokeColor=#FF0000;strokeWidth=3;" edge="1" parent="1" target="IS7x5C0Tvia5YEEZ5R6P-13">
          <mxGeometry width="50" height="50" relative="1" as="geometry">
            <mxPoint x="344" y="580" as="sourcePoint" />
            <mxPoint x="454" y="590" as="targetPoint" />
          </mxGeometry>
        </mxCell>
        <mxCell id="IS7x5C0Tvia5YEEZ5R6P-15" value="" style="endArrow=none;dashed=1;html=1;entryX=0.564;entryY=0.644;entryDx=0;entryDy=0;entryPerimeter=0;exitX=0.5;exitY=0;exitDx=0;exitDy=0;strokeColor=#FF0000;strokeWidth=3;" edge="1" parent="1" source="IS7x5C0Tvia5YEEZ5R6P-9" target="IS7x5C0Tvia5YEEZ5R6P-13">
          <mxGeometry width="50" height="50" relative="1" as="geometry">
            <mxPoint x="434" y="660" as="sourcePoint" />
            <mxPoint x="484" y="610" as="targetPoint" />
          </mxGeometry>
        </mxCell>
        <mxCell id="IS7x5C0Tvia5YEEZ5R6P-16" value="（0.5，0.5）" style="text;html=1;strokeColor=none;fillColor=none;align=center;verticalAlign=middle;whiteSpace=wrap;rounded=0;fontColor=#FF0000;fontStyle=1" vertex="1" parent="1">
          <mxGeometry x="424" y="570" width="80" height="20" as="geometry" />
        </mxCell>
        <mxCell id="IS7x5C0Tvia5YEEZ5R6P-17" value="" style="shape=image;verticalLabelPosition=bottom;labelBackgroundColor=#ffffff;verticalAlign=top;aspect=fixed;imageAspect=0;image=data:image/png,iVBORw0KGgoAAAANSUhEUgAAAKAAAACgCAYAAACLz2ctAAABNWlDQ1BBZG9iZSBSR0IgKDE5OTgpAAAokZWPv0rDUBSHvxtFxaFWCOLgcCdRUGzVwYxJW4ogWKtDkq1JQ5XSJNxc//QhHN06uLj7BE6OgoPiE/gGilMHhwjBqfSbvvPjcDg/MCp23WkYZRjEWrWbjnQ9X86/MscMAHTCLLVbrSOAOIkj/iPg5wMB8LZt150G07EYpkoDY2C3G2UhiArQv9apBjECzKCfahCPgKnO2jUQz0Cpl/s7UApy/wRKyvV8EN+A2XM9H4wFwAxyXwNMHd1ogFqSDtVF71zLqmVZ0u4mQSRPh5mOBpk8jMNEpYnq6KgL5P8BsJwvtpuO3Kha1sHmlL0n4nq+zO3rBAGIlZciKwgv1dWfCmNv8lzcGK3C8QPMjots/xbut2DprsjWq1DegafRL8KzT/57sqVFAAAACXBIWXMAAC4jAAAuIwF4pT92AAAGYWlUWHRYTUw6Y29tLmFkb2JlLnhtcAAAAAAAPD94cGFja2V0IGJlZ2luPSLvu78iIGlkPSJXNU0wTXBDZWhpSHpyZVN6TlRjemtjOWQiPz4gPHg6eG1wbWV0YSB4bWxuczp4PSJhZG9iZTpuczptZXRhLyIgeDp4bXB0az0iQWRvYmUgWE1QIENvcmUgNS42LWMxNDUgNzkuMTYzNDk5LCAyMDE4LzA4LzEzLTE2OjQwOjIyICAgICAgICAiPiA8cmRmOlJERiB4bWxuczpyZGY9Imh0dHA6Ly93d3cudzMub3JnLzE5OTkvMDIvMjItcmRmLXN5bnRheC1ucyMiPiA8cmRmOkRlc2NyaXB0aW9uIHJkZjphYm91dD0iIiB4bWxuczp4bXA9Imh0dHA6Ly9ucy5hZG9iZS5jb20veGFwLzEuMC8iIHhtbG5zOmRjPSJodHRwOi8vcHVybC5vcmcvZGMvZWxlbWVudHMvMS4xLyIgeG1sbnM6cGhvdG9zaG9wPSJodHRwOi8vbnMuYWRvYmUuY29tL3Bob3Rvc2hvcC8xLjAvIiB4bWxuczp4bXBNTT0iaHR0cDovL25zLmFkb2JlLmNvbS94YXAvMS4wL21tLyIgeG1sbnM6c3RFdnQ9Imh0dHA6Ly9ucy5hZG9iZS5jb20veGFwLzEuMC9zVHlwZS9SZXNvdXJjZUV2ZW50IyIgeG1wOkNyZWF0b3JUb29sPSJBZG9iZSBQaG90b3Nob3AgQ0MgMjAxOSAoV2luZG93cykiIHhtcDpDcmVhdGVEYXRlPSIyMDIxLTA4LTE2VDE0OjA4OjA3KzA4OjAwIiB4bXA6TW9kaWZ5RGF0ZT0iMjAyMS0wOC0xNlQxNDowOTozOCswODowMCIgeG1wOk1ldGFkYXRhRGF0ZT0iMjAyMS0wOC0xNlQxNDowOTozOCswODowMCIgZGM6Zm9ybWF0PSJpbWFnZS9wbmciIHBob3Rvc2hvcDpDb2xvck1vZGU9IjMiIHBob3Rvc2hvcDpJQ0NQcm9maWxlPSJBZG9iZSBSR0IgKDE5OTgpIiB4bXBNTTpJbnN0YW5jZUlEPSJ4bXAuaWlkOjkzOGM3MTIxLWU3ZWQtYjc0NC1iYzU0LTMwZjQwMzAwZGQ0YyIgeG1wTU06RG9jdW1lbnRJRD0iYWRvYmU6ZG9jaWQ6cGhvdG9zaG9wOmQ0ZDk5YTZhLTQ0ZjgtNjY0Mi1hNGViLTliYzM3NWIwNTZkZCIgeG1wTU06T3JpZ2luYWxEb2N1bWVudElEPSJ4bXAuZGlkOjFiYmMxZmJlLTI1MmYtYTI0OC05ZTE4LWYzMjJiOGViMTRiYiI+IDx4bXBNTTpIaXN0b3J5PiA8cmRmOlNlcT4gPHJkZjpsaSBzdEV2dDphY3Rpb249ImNyZWF0ZWQiIHN0RXZ0Omluc3RhbmNlSUQ9InhtcC5paWQ6MWJiYzFmYmUtMjUyZi1hMjQ4LTllMTgtZjMyMmI4ZWIxNGJiIiBzdEV2dDp3aGVuPSIyMDIxLTA4LTE2VDE0OjA4OjA3KzA4OjAwIiBzdEV2dDpzb2Z0d2FyZUFnZW50PSJBZG9iZSBQaG90b3Nob3AgQ0MgMjAxOSAoV2luZG93cykiLz4gPHJkZjpsaSBzdEV2dDphY3Rpb249ImNvbnZlcnRlZCIgc3RFdnQ6cGFyYW1ldGVycz0iZnJvbSBhcHBsaWNhdGlvbi92bmQuYWRvYmUucGhvdG9zaG9wIHRvIGltYWdlL3BuZyIvPiA8cmRmOmxpIHN0RXZ0OmFjdGlvbj0ic2F2ZWQiIHN0RXZ0Omluc3RhbmNlSUQ9InhtcC5paWQ6OTM4YzcxMjEtZTdlZC1iNzQ0LWJjNTQtMzBmNDAzMDBkZDRjIiBzdEV2dDp3aGVuPSIyMDIxLTA4LTE2VDE0OjA5OjM4KzA4OjAwIiBzdEV2dDpzb2Z0d2FyZUFnZW50PSJBZG9iZSBQaG90b3Nob3AgQ0MgMjAxOSAoV2luZG93cykiIHN0RXZ0OmNoYW5nZWQ9Ii8iLz4gPC9yZGY6U2VxPiA8L3htcE1NOkhpc3Rvcnk+IDwvcmRmOkRlc2NyaXB0aW9uPiA8L3JkZjpSREY+IDwveDp4bXBtZXRhPiA8P3hwYWNrZXQgZW5kPSJyIj8+P9/3pwAAGbdJREFUeJztXe1yI7sKnMn7v/PcH2eVg0l30yDZ2Vt1qNrKWB/QkhA0Xse5n+e5ltz3/TzPc+fnLKrPGbfa7/t+ruu64vN6zeY7tqN+Zb+7NobbwRPX5Yztjo9jK0y5f7LPSofrH9d1XTdzQDkpLRq9ZgcfxzkLi22dhXXWNNXfnbezjqk4NidOjGxMxt3XdY1uUJ4zAXRSJtFux9Z19S8Smt+NeB0MFR6mg0W3SXSuxn0tZUx5bHclR8Zdue/7QboyZmaPzZ/K8zw3O0wl6MCXLrXnTHfeZ7VO5AhoHWjsep1/OhLxIGxfldIO8GgE3RoFrtue9Ve3bedSoYNFWJg91KbwuNlIcdG4L/UKf+o9cWGzn6B1fEWjCpA7pnLotbhMWpX+uBCWNtQFqpyvuqXowrnOxOw4fXlfcsRHGND+dy+6CjA7etGYbwdU0cpxKtZeLSSOcaIxi3ooQqGbXDnTRDrRwnXw2D4pXPIlR8KciUV7FakZBmX7vu/npQhhBzo5ILco6Ng5VVC4BF4R9zw/UoKK1Ds2WSHA9Fap2k3rGUNe52l5eRsGgSgVCJCnDkXZdjE6G87GIq6l1tbB5mJB++ysaz1XgaUb3U7YvK4Lvw8oJ6SNcG8hstFNKaeic9SJ2t1L4zrAqaiNstTOHroRcwdvOY5FQKawewgdMF2Z2HbnXFf9Pt96ZhGw0uFinsyf2J7slTNO9X+hRiRLQVbkAFSh3pFMkB3CzPDlCF/hZRie5+f7d7kf4XFk6rTR8bL9d+BA2bCrZ5sDZjDLYLcImaYVhCE62U66iuuZ4GG4nIjZpTMI506K7sjWmV3XZXGy3VR7knMgLnOq4DlJFzqp8F1FzY6O0w6J9uOrsznVmGo+GjNZJBrPKAJri/Y7tpmOTA2WXRTtUVpUl1P1dzCe2Gem25m39iOOtzjgDhmP7YwLMsd0nGOHa6FDURdF6WB8UNl0LsuO40VHrxw8P7MxqM/RzWx9p2CxDqm4S1RZm9OHxk6xv0v/CWE04rr8t4jejUeNXTiVjm8HfP4UIcxROrxt53A/yb3QBdrhie4lc/iqsjfZs5Pc+x3yFYHEw0CLRZXu6ovtldGd1OeE9QoHSpmdg0DYOxzZ3aP8enJhq32o5jvYcluHDsH/CZmAkkbMlPGutwEqW12iz5zhVMHgYljPExryiTlxHtuzlyIEpZCJQVYVVTcHcoRGIYL0upW3E8Gyg+XXub0i79Xa1H6hKK7mI/wdbOoM8zx0pmy/XzjgCULf5TeODVdf16aT1k6v45ReB2tnz06ucz1nvRDzY/5f8ASIikzvSLXOuJ2N/hRpV3t3at8qGnFd3qdZdoW+DzhNwUvyYlD6YjZYO9pENFZRCYZL2a8uTZXu0Ry1jm4Uz/MVjrgWFq2Q/SrdOzhhO4uAJwk1WnSH8E9wMA6DxqkUodonMrHBIth1ee8LOmvcwY5wLWyVjvt5HvuwdsFFgN3NfkfqO8XLPuGgua/kVg1MXR6Y0/XO2r9/LTOG2En6rdJTHJfDv9KzSwWUjt2oemIsSo1sXOxjz9m2g0OdB9Kzc0Z57A8OuJvrXRBqo+OhnMai+FFli/V3oo/LW1VW6l5K5JDI8ZkjsrYYuBSnz3Ze2hkHPCndEF/pWs85BVV20CZ0MaFiCmGZrW5WwTMM08JG6Xaxurp/OKCzAYgAT/jDuyOtsu/0uQWDy8FcEo+iXdcpXf1TPZVuV5/9kfzrwu9qo7aOLiQ5PXSEzXHSbO6rUi6Lhmpud22ZEqn1uXwPzZ3wYUYTYpCp+CjkgA6AiohWXEJt1g6pdgsptIHROZz1uA6reFaH/Fc2JxHM5XxZOllSzXn5ao5p5aYARr3xNnc2q7PJDBNKmewwkQ23CECOm6OBSlNOdN0VdiZOlshRXu23RckyB+zIlOd09F9Xj+A7hYYqWk5x1NP7cIqfneSAJ/jn187NYlFuqm9JVWlWmKoCQTlfXlvGtJ4rrumuUc05EQUVT0PtHXGzArNx3/dj/VJSFwwD5B5c5hB50xhXc3habs/p3YkObnpB4nIjlZ4r/Z19YPi6fVM58j4gSmmrT6XPaYrtEOBJZD6Z8t5lo0t/FN04iaErP6rgHF06Xh8XmKNEFYmqSLawqEgbo1rX4ZRtpy+LcoR8USYpHel3UiI7k25hhfasGofkxxdU5lvS9fDq1jO+GJ0mb0x06rzwCp/r4A7+HS4WdTDnYQeZxTnYScSPehWv7wYXJS9fUJmf3UWo247GOeOdwqaDz3EsV+/EEdEFyE7X2UeHqqiiCo3fvWBofnWxvmLHbmXn6Oo6DeOUO1KlR1TsOHp29o9FlOxsbpRETqrWkemL44xsjHOhv9dxoghByk84ylSfOz6PQzd3ug6k24lC8TXChgoIVmAwXWz+ZJ270vpIvhsdMp9QepS91e6mpmxfjWG6GBft6HDmMq7FIpfiXQhvblMO6a7T2UtVkKBn6oAuD1L9KvSe5pdK3IoQFT9TfW6fcjinGFF9Oa0qXY4d5yyY46OLcN/3A9+GcbhCVuaKowPdHkSqnQPvbr7a7Fw8TMm6W8FW3E85BIt8KPJWWJ1g416WH5eNcUDEK04I0uce+ikMf4N0eOp1/XRGtleqaJvyUjTH8Y8K53WRFMxSAOKAbD7rY2nOiWb59nY4CcM1jWRZ7zQaKr3X9W8ERwUSs8u45OQSK+oQfzIclU7ogNGz2SJ2iCsi/GwuI9Zuat3lss48FtEndlU7oiBOBKswdAq27n6pi/KDA7JbltuUsTwX8Rj3Zp4gzkpfxju1hfQpHFOpioCOM3ayB5vn8FF1UZ5HfDkRE5bTUbRSjnbyYDo44zOLYtPqk21ynssKg0q/oiAsijmXG6VT5lwo5e5QI1iEVEVBp92Zx2xVslMg0aosRcXfKH6i3S6G00UbwlIVIKifjkUO6AJar69Lv9OuxnXt/U2S1+Sm/a5zs4NE9MgJAtNgsSPMtvXnWpXksD3hI6p9h2Q7/R1BaQfRDqdA6PBOFkWyHRbNqz1VhSLrd0Xx7JcixD1oFenypquFTwsP10ERL2U63D4Hf0dHJYqz5guPDjc7puv06PIoh1Sv0YWJuNt/qou1VwS8k24mOPLcKgLFOW4E6EQCl4wrvYo/IedC/UxntFvtU57DbFW8GmDXH0aoIgU7OHee4kxoTHdunIfGoXnoQDvpco1nFyDi70Qktg9Idx43SaFdShXHOLToe+zz5+vZpqmBbbLTjsZlzqAO0SXzjp7JOrv2UB/bgykVcQuNjnR0oT1F+/h9Ef9pm/M/1O7ocA4CLSBKd373QBzneLnNQ4etbDp4XNuTYDNZi3ux7LdhpjfVlc6t7+I44RgVrpNRZ/fQT5yVO15FPGd+qwhRYd8FOpW1IWhREQfjht3omjmQ4pVobyr+pfYDcT42NvZn/upQJWaj46x5/9d+O1yVRsCT0U0BYFxh9VWp+1MyTb15nMONT+BD/Qufy31jNJ1G0IpSyI9jRTCOwZ1x0WaOWOy5sqMwdSNyvtEqErM2hp3tdbWGynaFRXHrHE0d555kue/fiotKENAqpSBASJCTZedD47uS9TMcFd44RjlQdUB57xyblV5HOk7hpvpqbI5+yEG/+5wiZJeQZkc4mUIdnqNSgcKM0j+yM9Vd4WVr2hVECxCeTlqv7LC+FwfsbAo6+Mkisv4uR7IW2TzMzvjqAji6nYPujO/qeKezl7ie9HdC/h+cqbNR/znT56Wzpvsy3oiOSrsbnNucQ0ORtut0Eyff0euMm1zKDrbr2n8D/ASWjsCPY6FiwwUVHY1tCnsdx682dmDo+ZPiFFrd9orYq9dxz9CYWAhURZljvyPM5nWlFNxJuTuFiRrrRggnXZ6KCtP+d8kkWr0j9aP+6+pRkpc/1ZU9dWdzVQRkEaxjT0XIrLfTh2x0+98RldE+5YOOUc7Rk6NiNc/Zj67PwF9KQkAiSJUOchpFgGIb4n5qvBqbD4kd0EQ6cx3HcPCw4hD9jGMid0Z962d+ZuffwZnbEJYo8NcyEZAIMkZMNtcBudrdw1UOxgQVMo7Tu9Gkws74rIud2UUOxeYyh6ocLQcTN0BEihD7oaM+4vOAFW/4FAdiC/qETNYcx+xi393jHR6f1xH7Tp3BNwdEnVX4dA6iijD5Wdlxot4J/tUpcJCgSKeiwMS+KyywVI7JLo6Khoq6MXzwv+Im1cw7qix0Az8Z/Sp875zb3e8TGKe2dy7Myx+qUTm/Uqw4iCtKh8v5skz4ZX6tbrtD2OPYDqE/Ec0n4p51XA87nyoDfkVlKlw7Sk/JpOpy56rx7MKpIsK5eKwQmeJcetBad/liZzyKgg5XfMlsT/F/wZ8qNJCwtKuqrOpCfQKzyxt3ipt34IsYnX2MY6f+cl/m/wVPpMPhmPOcvAjuIcfXrs0uD5qu5wS3nti8Lu//5jsOfF1/HNBR2FGa57MIxkDHMV0HZOMd0l4VQb+VCbKgQ46vV5t72TtzTwusgu3JjYjytxwekk50PmWvSoOdNLmj97cvlv1bcUjQYtS4U8WLqirdgklVqyexIv3VgaPskPuRDnWBqrNBODt74IxFel8iYJfHKCPTyNhNg91b/9s3/jczgqIh63mnoFD22Nl95cEuz0LPawGRrKr56hajMRVvRJL7Ha6rpBMdOtGrIxlDjHAqOyi7EVf+iewrH3Cz0POQX0qqbsBuYYHAOP2/IZ09OGHrurSjVMXFmj/NZt0IzXzB0XHf9/PtgMxhkCK3cuyCnx7qCWeoNlJdyl3HebdMbLNKeVrI0IscHfAdG+Qc3HXpt3h2nHoHd8TV7UdjK31OBkE6JlEx6umuRV3I7v63quBORblE8YnFOxjPU23IvkOyKx3MbuZYXS6HxkcuxbgqsstwSq6VLsH0kjKeyBy92vsvdasmAKv5iBzvinLyeFMdHey1aq8KLuXIsZ0VdMi2e2Hi3nQdzwk42U43Ar49BZ+WT+J0iqbrqv/D3Xnt2PttcbnuelYp/vsiPqIK7oJzomiHZ0yxdOV0pduOAuZ45sSKZ7v2pme+ntnZV85K/1RXVxjJzf/UItZrxmlY+lLCdDjCNtXllK4tl+OyiBJ/VjYZP5tQsHymFc9E/gF/K24CxqnE4qGs57ipeXPWItiGZ93ItsPtKtx5nBMpVMHh2Mq6mLMwjG6/stnB19H9ohel4GjUuZ0q11sgUgXVSQ+76c5Nv7tkO+teurZJvIhiu7hUxuqceS4EX/a1csD1fIprIFDK4aoNnjq9g73S23Xmd3JbhveEndMc+UXHU/yZBtdBJhGqijJq3E706VyekxGmY9/Rs553M4Crg/lCB8ePwukBb8OcvJ0KtOOYbrrq3tKdi+PM7+ir0tpJW7Gf/XRsdG2iMfcd/i94YsjhLxOO46bupXeSht+Zmk7ZmPLhk8HkNFX4ob/rgD8UDABOOWT3QP5W+STm7h52nXfH2e87fR7QmZDbonFHR5yTdeb5eTGZk6ExLu7YjrDHvkq/M87hShVOt4+tReFBGaWLZc3t+MGXa1iBWZ6fUzNyLrXJjjNlGwjPRJht57KoS8T0V07CDpJdQObgLi9mUSzjqKJp9IOMCz3/+EQ0WmQlyCDbqG6IZniQnm5ay5iqdeeDjZd3alvpQHvWvShonBvl1ljHprKnOHr7jWhVhKi5DnmuFtMd25GcCU4Sd5V+2T7tYOgUfg41cOxNMZefB4whOBrKY/K8HYdyeIaj17Ef9U4OAKWVjFFFEjQ2/uzaRnOVrklm2tUR/Uk6INo0d2MZyKxrkkoRJsVVmOQUv3R05jIs1fyow8GGxEnNEyzTC+7qeIn4KAVXqdeRKgU7KVml+CmO7rzJ/FN0w8F2XbP3Ql2M76I837YYB1QOwwqW3F+Bf+fiGAbm3J/c9Aozes2Kujiuw8lP4EP9y351IVY//WuZua3aCOaQKpXkOVVYZ6+VbrYBmTo4B8gworFsLWo9FVeLmKOuuFa1XoceqDHMB9ga2PiXvgf8WqaKDghwFe120mBelEMPVGEzxbibylFbR+cnIthvCOWA63mH91XtlT2lj43d4Y3OAVWYpraZ/ikHdXHsOGW151bgYhzQBfgJ3sH0u2OrqOlG8fV8IlKqKB0l4+pG6k9Eve6+vaznMT8POE1RJ9PMCRtd6UbUk1hU4eHi6FwIZeMUlfihV6XgU5zolON0olA1ZophV3bS/I69Dq+fYurSkPsuPg/47siSU8V11cDVrcsbcKIw6qQ/Z8x/lOVVfrwNw0rw1R77UZsrGdQj3kJA8+JmrJ9LR9yc+8ZfJRajgouzg2/SH/Fm3BF7fu5iiOM6YzOWfAZMd/aTl3U86Qsquzfwb053ym52RCcKOHqneNTYhVO1d7nqFM9ElH75gVTnxrmevsYy/U67EhQxol0nYnTtOukHYezMY1GKtaGoySIpyg7OHlR+0dHxIwKuhazXjKuscSd41lQcHIzDOc+V7Smh70jFtzrtrCA5gW88/xFfUJkNrX528JPDs4GS6PAuR3D24xMOuCufChBov5xo/+KAU87TuVmT27d9ywgV2HGiKW/MY6sId0I6geG6uBOdjJxL3zcHrHiSa7gakxfnAN1d8Jqf9cTXbP2KV07xxENl2LpczJ2jJPNN5LhOcFES+efzgC8nYgWEuwAGJhtm4ysiPDmYbMvVg+ZNMTk6o57JZV/nl/dQ8fg4vrMOZ48Z5ugDP94HnHj4TvTMYd0dh/pREcXSL8LsUBDVfyoqTi7/Wqvj3NeFP8JVpVpn7x2JeuzPA3bFPQw0zm1bsja+ky6QDvVa6dtNS1kHckT2rOajsQ6l6EZftPfKVhTogEvh1KsViJPFxGpji6/Itzr0STSapiWUDtdcFcUzXUKY1aV0qE52/NyudDhO+aWU7EaUbvVV9XUrTCelMtuV4yGnYY7h6l+Yd7JHbEe0hI3LuDJVyXtaUaZK73f7ddV/rjUTR6U0H0RVVSmpeJ+rA+FHr6MttY7JWvLcaOtT4p6hGq/mTPZJfhqGLYIB/pQ4jp3TmBMN89hOBO84N8Op1uOKwuLgnKy3g+260lqf4gOplcGdzeqKupHORjqXZ3rBPrkPU9kNHiobonFV333/eSMacYYo7DAdgu6S+IrcVlxNcbH17PArNMZZQ7WHDHdeQzVP6XEwIpys0EDzHRzLSSt8z5N+J6QK19kA+omATcN1J2XlNndOXBPq63JW5Px5TzupzsXgUofOeexEOnd8yQFP8JEOae3afUfqmxDz0Pfncca33l38IN0dLOiS7ez/jz9Uk0MwiwxobB6DdDjtShQ+Zr/Sh57zuvNms9R/3zc80E76Wm1ojorilcS57Flh3slm1F9QBHQMdSPUiXB9Ymyl57peOUx3jXFOdx9PRL93ZARXJhHx2wEVJ3IMd/jaJLUpTCdSwQkdHV0sva3+LjXJl6cz/3Sqd+W+09ezPc/P7x9xFKkQ7qaiyrkYHtc5Kx0Iq9KXUzBaC9s/lV7XPza36nPss3lMOqlenVF+/eQqOA/q3oB8gzsp4xO3cEIH8hyHvJ/ANskUHTsn5juUQ0V66oDvWORvcpNl/7qu6/nnjffrz/OIYzLO924ZcSwjrbN5kwvAMNI9fIcDKulu4ukoE19P9HaKr2Wjy7veFfm7a3inLAzw1zKZ5+9yAaZbzVfcLvMxZTfyPJfvKX0ObuRg6zlG0Io3dfc+i8vDFZYd+wpT+Ua0K27oze3vTmOno8pUT8V1r+t8VkB6p/vtpN4OpoVh7IB/Ax+Z2lOXgo2dYnfxV5gmdpX+nSLTdTRrXOWA76j0Kr3d6vm6Zk6h5p3mTe6aIqauzY6NaGcqnaiX1/SDAzKgDgdjc5Uo4ChlsDGMz1W8as3L49i6dw8rHgDDlTFNUhrqiz8ZB3a4X349vfRx7ksEnJbeldFKp9rwTiRyq81Kz45U1W9XF7uMnQyxc3bRVrX3LrYo5V9Kygq71RADE9tZFFt9zuIUuUeYUfRjetHzeh1txAjDdLj21MXrHLCKvM7cfE4s83VSf3wt/yckL2AaoTqRidlnbTvyzujo8l13/nV5hdTU/jQj7cqoCj6VktUmoRSS206kmSn2v1HvrqOfko7O71/LrEi7MtZ5nUM6eo6v0ZjsdDtpBq1HFVjOfKXTTV+oAHBtZlqg8O7Qq4zVzVAv63IjoBttuhXcJyJXR7qY3PR2XfO3V1wc6/nk3r/zjO67+JLyPPi65vzrN52tw5ec8e+QeMFXm+JgE17IdK1nZjOOr8Yw/aydfkVvriAfUakyoBPpph0nZbJNYP2oYIrPeW/y2B06s/aZ7bVDW9z9z7qyM6t1IuxKP2u/r+vfb0aYVro71eRuYaHGKV3xYjlRh/XtiBt1EE9D68lrPR3JK9sjnU/Iwfd9H/tI+q4ex2k6l+YdGKeyW62iy9NNxZMxHedWVCHK1/3PhzO33ziNcuJgF/gcnZbu/LOLwU1XLP3mMW66YhTDrVZjms59lR5UqXaoS7bJaFueo8beT/hqDhZhEBi2wI7zoc1Q0Qzh27H/DnH3C0U0NK+zpt3I6vRPzljqfxpfUt5RzOZcF/+402m+ciINqfEVTZjamc7p6tvBdQrfy5eU7yhy0nZOHdGu4ywoZTkpL45Faaiar9bjtHci2Pp3yvmiPodCVNLds5IS/KNzFikmt+odkYnN7WDpzDuBVc3r9J2mIp3ioqJLrH89P89zf+XFIKMszaA5Oze3E5mYqJuOxuZ5sd3Rg3jckhxxme04ntlxz4a1OTbWXJZtou6KesT9zPrD3Od/2cRoyxGHmeYAAAAASUVORK5CYII=;fontColor=#FF0000;" vertex="1" parent="1">
          <mxGeometry x="344" y="500" width="160" height="160" as="geometry" />
        </mxCell>
      </root>
    </mxGraphModel>
  </diagram>
</mxfile>
